Coordinates
version=1
nRows=16
nColumns=22
inDegrees=yes

Units are S.I. units (second, meters, Newtons, ...)
If the header above contains a line with 'inDegrees', this indicates whether rotational values are in degrees (yes) or radians (no).

endheader
time	pelvis_tilt	pelvis_list	pelvis_rotation	pelvis_tx	pelvis_ty	pelvis_tz	hip_flexion_r	hip_adduction_r	hip_rotation_r	knee_angle_r	ankle_angle_r	subtalar_angle_r	hip_flexion_l	hip_adduction_l	hip_rotation_l	knee_angle_l	ankle_angle_l	subtalar_angle_l	lumbar_extension	lumbar_bending	lumbar_rotation
      0.01000000	     -3.37896571	      2.89300541	    176.61002107	      0.28458084	      0.93439064	      1.05372900	     -3.19878286	     -0.23989533	      0.77505374	     -7.03064116	      4.44365064	      3.99297453	     -4.16461618	     -8.96909796	    -13.45034891	     -9.61666161	      7.85160129	      6.98793102	     -5.11064249	     -1.20501266	      0.04924646
      0.02000000	     -3.37857396	      2.89744515	    176.61768643	      0.28450992	      0.93439294	      1.05365920	     -3.20246168	     -0.23063788	      0.77841426	     -7.03579445	      4.44415296	      3.99338934	     -4.16731428	     -8.97932205	    -13.44959029	     -9.61643797	      7.85140032	      6.98747015	     -5.10915161	     -1.22341668	      0.05008103
      0.03000000	     -3.40831945	      2.93321345	    176.63614005	      0.28444251	      0.93443218	      1.05358828	     -3.24681762	     -0.18724771	      0.80210174	     -7.03196077	      4.45626942	      4.00646712	     -4.20237944	     -9.02347465	    -13.43163876	     -9.61729592	      7.85985896	      6.98111639	     -5.14924159	     -1.20716437	      0.04664916
      0.04000000	     -3.40874060	      2.93795772	    176.64586006	      0.28436768	      0.93443633	      1.05351033	     -3.25142667	     -0.17705018	      0.80686508	     -7.03791766	      4.45560694	      4.00731529	     -4.20530015	     -9.03436847	    -13.43091937	     -9.61722943	      7.85991818	      6.98057551	     -5.14994839	     -1.22844825	      0.04735537
      0.05000000	     -3.46314303	      2.98121593	    176.66997962	      0.28430360	      0.93450863	      1.05344835	     -3.33116111	     -0.12685100	      0.84212439	     -7.01810579	      4.45912444	      4.03215604	     -4.26513847	     -9.08509826	    -13.41153349	     -9.62055732	      7.87640687	      6.96520120	     -5.22179415	     -1.20399112	      0.03737049
      0.06000000	     -3.51224635	      2.99873125	    176.68724267	      0.28423425	      0.93457811	      1.05339552	     -3.39882379	     -0.10631144	      0.86129574	     -7.00593083	      4.44109180	      4.05381616	     -4.32224385	     -9.10516380	    -13.40242081	     -9.61643236	      7.88256034	      6.94914670	     -5.28195605	     -1.20892297	      0.03319647
      0.07000000	     -3.51397283	      3.00286956	    176.69864888	      0.28416796	      0.93458280	      1.05334647	     -3.40418270	     -0.09785663	      0.86682057	     -7.01311020	      4.44106124	      4.05449479	     -4.32509913	     -9.11323085	    -13.40199064	     -9.61649643	      7.88263041	      6.94830523	     -5.28033696	     -1.22550261	      0.03370350
      0.08000000	     -3.56710765	      3.03891973	    176.72474495	      0.28413505	      0.93465181	      1.05331993	     -3.47933510	     -0.05664544	      0.89896558	     -6.99564208	      4.45533275	      4.07232346	     -4.37805015	     -9.15453235	    -13.37698300	     -9.62385213	      7.90413922	      6.92170369	     -5.35056525	     -1.20428502	      0.01623643
      0.09000000	     -3.58572555	      3.04428350	    176.74159124	      0.28413066	      0.93468206	      1.05331306	     -3.49475384	     -0.04913272	      0.91826415	     -7.01311941	      4.44484296	      4.07553708	     -4.38929461	     -9.16183902	    -13.36575018	     -9.63265997	      7.90578732	      6.91531161	     -5.37890091	     -1.21501954	      0.01015353
      0.10000000	     -3.65003074	      3.07289459	    176.76945835	      0.28406975	      0.93477229	      1.05332500	     -3.59108809	     -0.01990577	      0.92426607	     -6.97776248	      4.43792101	      4.09263213	     -4.46201980	     -9.19104959	    -13.34566838	     -9.62786531	      7.92847452	      6.88031216	     -5.44998699	     -1.20025166	     -0.01076650
      0.11000000	     -3.66726517	      3.07726085	    176.78562824	      0.28408551	      0.93480418	      1.05335150	     -3.60168855	     -0.01538809	      0.94444996	     -6.99865867	      4.43023905	      4.09476530	     -4.46995028	     -9.19543987	    -13.33180815	     -9.63804056	      7.92553862	      6.87508057	     -5.47510325	     -1.20897754	     -0.01769816
      0.12000000	     -3.72052684	      3.09966727	    176.82068605	      0.28406992	      0.93488290	      1.05340827	     -3.67653089	      0.00660220	      0.94372841	     -6.97693521	      4.42550005	      4.10723593	     -4.52213748	     -9.21758301	    -13.30289977	     -9.63718260	      7.93941471	      6.84758881	     -5.53890243	     -1.19859393	     -0.04411186
      0.13000000	     -3.73455481	      3.10503159	    176.83640908	      0.28411176	      0.93491118	      1.05345780	     -3.68006447	      0.01101063	      0.96102941	     -6.99896271	      4.41696331	      4.10880346	     -4.52628611	     -9.22209580	    -13.29058279	     -9.64459525	      7.93792833	      6.84404266	     -5.56311753	     -1.20646513	     -0.05481338
      0.14000000	     -3.75543410	      3.11712485	    176.85957993	      0.28416159	      0.93494762	      1.05352746	     -3.69287808	      0.02118771	      0.97618979	     -7.01800038	      4.41233004	      4.11247999	     -4.53389415	     -9.23482609	    -13.26754786	     -9.65726711	      7.93947420	      6.83739403	     -5.59628413	     -1.20616174	     -0.07416597
      0.15000000	     -3.76040558	      3.12307986	    176.87769328	      0.28417428	      0.93496296	      1.05360652	     -3.69588356	      0.02440048	      0.98105896	     -7.02487359	      4.41095389	      4.11320331	     -4.53388774	     -9.23879220	    -13.26628696	     -9.65565231	      7.94061678	      6.83617724	     -5.60062441	     -1.21190884	     -0.07509610
      0.16000000	     -3.81352868	      3.16083697	    176.93203508	      0.28424706	      0.93504030	      1.05373722	     -3.75161829	      0.06130040	      0.95965123	     -7.03076020	      4.39577959	      4.13097453	     -4.56500923	     -9.27893789	    -13.19787762	     -9.67803757	      7.96617439	      6.81158585	     -5.67987605	     -1.17895334	     -0.13446994
